<?xml version="1.0" encoding="UTF-8"?>
<svg id="whitening" xmlns="http://www.w3.org/2000/svg" viewBox="0 0 185.24 231.71">
  <defs>
    <style>
      .cls-1 {
        fill: #008497;
      }
    </style>
  </defs>
  <path class="cls-1" d="M164.28,71.83c-20.43-12.22-43.99-6.25-62.66,6.67-8.7,6.02-15.93.84-23.98-4.54-15.84-10.58-36.33-11.46-52.61-1.31-12.7,7.92-20.5,20.78-23.21,35.41-.21,1.11-.3,2-1.08,2.36v5.17c.58,1.16.55,2.28,0,3.45v5.17c2.61,9.74,6.02,18.77,12.58,27.08l8.73,11.05c4.71,5.97,7.44,12.79,8.02,20.46l1.34,17.56c.56,7.41,3.01,14.25,7.27,20.19,5.96,8.3,16.03,11.54,25.53,7.6,6.51-2.7,11.27-7.74,14.39-14.07,6.34-12.87,3.62-24.22,9.19-32,1.67-2.34,4.04-3.92,6.6-4.12,2.52-.2,5.03,1.32,7.05,3.33,7.89,7.82,3.52,21.59,6.75,34.34,2.78,10.97,11.66,17.07,22.71,16.53,10.69-.52,19.31-6.46,22.2-17.02,5.41-19.77-3.82-43.58,17.42-64.14,6.9-6.68,11.25-14.87,12.73-24.44,3.32-21.44,1.08-42.74-18.97-54.73ZM175.72,127.67c-3.94,19.58-20.26,19.72-25.43,45.31-4.89,24.14,3.31,50.16-18.99,52.02-8.47.71-14.53-3.88-16.31-11.74-2.79-12.36,1.59-26.39-8.03-36.65-3.62-3.86-8.22-6.14-13.47-5.76-4.75.34-9.3,3.46-12.25,8.04-7.15,11.15-2.48,27.96-14.24,39.01-3.51,3.29-7.63,5.01-12.35,4.7-4.22-.29-8.07-3.19-10.84-7.27-9.2-13.59-3.28-30.86-9.7-46.25-3.14-7.51-8.04-13.96-13.42-19.99-13.6-15.26-16.42-35.73-6.99-53.87,11.45-22.02,38.44-29.3,59.36-15.62,10.26,6.7,20,13.37,32.67,4.79,7.7-5.22,15.78-9.35,25.01-11.14,21-4.07,42.68,6.77,45.84,28.63,1.26,8.67.85,17.24-.87,25.8Z"/>
  <path class="cls-1" d="M.73,119.04v-3.45c.95.77,1.41,2.18,0,3.45Z"/>
  <g>
    <path class="cls-1" d="M153.35,2.2c.29,2.4.04,4.8-.69,7.04s-1.94,4.34-3.58,6.11c2.4-.28,4.8-.04,7.05.69s4.34,1.94,6.11,3.57c-.28-2.4-.03-4.8.69-7.04s1.94-4.34,3.58-6.11c-4.8.57-9.61-.99-13.16-4.26ZM161.59,18.35c-3.2-2.51-7.17-3.8-11.23-3.64,2.51-3.19,3.8-7.17,3.64-11.23,3.2,2.51,7.18,3.8,11.23,3.64-2.51,3.19-3.8,7.17-3.64,11.23Z"/>
    <path class="cls-1" d="M166.45,5.92c-4.65.55-9.28-.96-12.72-4.13l-1.09-1.01.18,1.47c.55,4.64-.96,9.28-4.13,12.72l-1.01,1.09,1.47-.17c4.65-.55,9.28.95,12.72,4.12l1.09,1.01-.17-1.47c-.55-4.64.96-9.28,4.13-12.72l1-1.09-1.47.17ZM161.59,18.35c-3.2-2.51-7.17-3.8-11.23-3.64,2.51-3.19,3.8-7.17,3.64-11.23,3.2,2.51,7.18,3.8,11.23,3.64-2.51,3.19-3.8,7.17-3.64,11.23Z"/>
  </g>
  <g>
    <path class="cls-1" d="M143.28,101.28c-4.53-1.68-8.11-5.25-9.78-9.78l-1.27-3.42-1.27,3.42c-1.67,4.53-5.25,8.1-9.78,9.78l-3.42,1.27,3.42,1.26c4.53,1.68,8.11,5.25,9.78,9.78l1.27,3.42,1.27-3.42c1.67-4.53,5.25-8.1,9.78-9.78l3.42-1.26-3.42-1.27ZM132.23,114.9c-2.52-5.45-6.89-9.83-12.35-12.35,5.46-2.52,9.83-6.89,12.35-12.35,2.52,5.46,6.89,9.83,12.35,12.35-5.46,2.52-9.83,6.89-12.35,12.35Z"/>
    <path class="cls-1" d="M146.98,101.79c-6.49-2.4-11.59-7.5-13.98-13.99l-.76-2.06-.76,2.06c-2.4,6.49-7.5,11.59-13.98,13.99l-2.06.76,2.06.76c6.49,2.4,11.59,7.5,13.98,13.99l.76,2.06.76-2.06c2.4-6.49,7.5-11.59,13.98-13.99l2.06-.76-2.06-.76ZM144.58,102.55c-5.46,2.52-9.83,6.89-12.35,12.35-2.52-5.45-6.89-9.83-12.35-12.35,5.46-2.52,9.83-6.89,12.35-12.35,2.52,5.46,6.89,9.83,12.35,12.35Z"/>
  </g>
  <g>
    <path class="cls-1" d="M128.5,17.72c-1.29,9.59-6.7,18.13-14.82,23.39,4.79.64,9.32,2.32,13.32,4.85,3.99,2.53,7.44,5.91,10.07,9.97.65-4.79,2.32-9.33,4.85-13.32,2.53-3.99,5.91-7.44,9.97-10.07-9.58-1.29-18.13-6.7-23.39-14.82ZM136.44,53.14c-4.94-6.46-12.01-10.94-19.97-12.65,6.46-4.94,10.94-12.01,12.65-19.97,4.95,6.46,12.02,10.94,19.97,12.65-6.46,4.94-10.94,12.02-12.65,19.97Z"/>
    <path class="cls-1" d="M152.04,31.46c-9.28-1.25-17.52-6.47-22.61-14.33l-1.62-2.49-.4,2.94c-1.25,9.28-6.47,17.53-14.33,22.62l-2.49,1.61,2.94.4c9.28,1.25,17.53,6.47,22.62,14.33l1.61,2.49.4-2.95c1.25-9.28,6.47-17.52,14.33-22.61l2.49-1.62-2.95-.39ZM136.44,53.14c-4.94-6.46-12.01-10.94-19.97-12.65,6.46-4.94,10.94-12.01,12.65-19.97,4.95,6.46,12.02,10.94,19.97,12.65-6.46,4.94-10.94,12.02-12.65,19.97Z"/>
  </g>
</svg>