<?xml version="1.0" encoding="UTF-8"?>
<svg id="venners" xmlns="http://www.w3.org/2000/svg" viewBox="0 0 224.02 175.94">
  <defs>
    <style>
      .cls-1 {
        fill: #008497;
      }
    </style>
  </defs>
  <g>
    <path class="cls-1" d="M170.3,69.93c-.23-.09-.45-.18-.66-.28-1.48-.75-2.64-2.02-3.21-3.6l-.21-.57-.22.57c-.66,1.8-2.08,3.21-3.87,3.88l-.58.21.58.21c1.79.66,3.21,2.08,3.87,3.88l.22.57.21-.57c.59-1.59,1.76-2.88,3.26-3.62.2-.1.4-.19.61-.26l.58-.21-.58-.21ZM166.22,73.56c-.7-1.51-1.91-2.72-3.43-3.42,1.52-.7,2.73-1.91,3.43-3.43.69,1.52,1.91,2.73,3.42,3.43-1.52.7-2.73,1.91-3.42,3.42Z"/>
    <path class="cls-1" d="M212.05,10.98l-.86-.33c-9.22-3.51-19.35-3.43-28.51.24-4.5,1.8-7.99,5.19-9.92,9.38-1.59-6.89-6.55-12.76-13.32-15.34l-1.01-.38c-10.81-4.11-22.68-4.02-33.43.28-6.7,2.67-11.46,8.38-13,15.18-1.65-6.78-6.57-12.53-13.25-15.08l-1.01-.38c-10.82-4.11-22.69-4.02-33.43.28-6.83,2.73-11.65,8.6-13.09,15.59-2-4.25-5.6-7.7-10.15-9.44l-.85-.33c-9.23-3.51-19.35-3.43-28.52.24C4.62,13.72.06,20.47.06,28.08v46.41c0,3.84,2.86,7.17,6.66,7.73l6.88,1.03c4.18.63,8.4.95,12.62.95s8.04-.28,12.03-.86l8.03-1.14c1.76-.25,3.32-1.1,4.5-2.3.22,9.33,12.06,9.92,18.45,10.24.62.03,1.21.06,1.74.09,3.23.21,6.44.32,9.63.32,7.41,0,14.65-.57,21.64-1.7,2.33-.38,4.78-.87,6.87-2.3,1.36-.93,2.25-2.3,2.83-3.9,1.68,4.97,7.63,6.53,12.91,7.13v39.09c0,9.59,12,10.19,18.45,10.51.62.03,1.21.06,1.74.09,3.23.21,6.44.32,9.62.32,7.41,0,14.66-.57,21.64-1.7,2.33-.38,4.78-.87,6.87-2.3,3.11-2.13,3.79-6.53,3.81-10.86l1,.71c1.33.93,2.12,2.46,2.12,4.08v36.02c0,.17-.12,4.24,2.16,6.6,1.04,1.08,2.4,1.63,4.03,1.63,3.26,0,5.3-2.1,6.52-4.13,3.69-1.91,4.86-6.86,4.92-7.12l.02-.1v-40.8c0-3.51-2.63-6.44-6.13-6.81l-14.94-1.58v-29.87c3.5.45,7.01.66,10.53.66,4.02,0,8.04-.28,12.03-.86l8.03-1.14c3.83-.54,6.71-3.87,6.71-7.74V28.28c0-7.63-4.79-14.58-11.92-17.3ZM49.27,74.45c0,2.03-1.52,3.78-3.53,4.07l-8.03,1.14c-7.83,1.12-15.76,1.1-23.57-.08l-6.88-1.03c-1.99-.3-3.5-2.04-3.5-4.06V28.08c0-6.09,3.65-11.48,9.3-13.74,4.24-1.7,8.71-2.54,13.18-2.54s8.56.77,12.64,2.33l.86.33c5.7,2.17,9.53,7.73,9.53,13.83v46.17ZM106.99,83.48c-1.46,1-3.37,1.37-5.36,1.7-9.7,1.58-19.94,2.03-30.42,1.35-.55-.04-1.16-.07-1.8-.1-7.56-.38-14.92-1.21-14.92-6.81V24.81c0-7.33,4.39-13.82,11.19-16.54,5.05-2.02,10.37-3.03,15.69-3.03s10.18.93,15.04,2.78l1.01.38c6.86,2.62,11.47,9.31,11.47,16.64v42.61c0,.95.06,2.09.13,3.29.24,4.28.59,10.74-2.02,12.53ZM124.83,74.05v11.97c-5.38-.64-9.67-2.13-9.67-6.4V24.81c0-7.33,4.4-13.82,11.2-16.54,5.05-2.02,10.37-3.03,15.69-3.03s10.18.93,15.05,2.78l1.01.38c6.86,2.62,11.47,9.31,11.47,16.64v27.96c-10.2-3.31-21.2-2.95-31.22,1.06-8.22,3.29-13.53,11.13-13.53,19.99ZM181.06,132.72c-1.46,1-3.37,1.37-5.36,1.7-9.7,1.57-19.94,2.03-30.43,1.35-.54-.04-1.15-.07-1.79-.1-7.56-.38-14.92-1.21-14.92-6.81v-54.81c0-7.33,4.39-13.82,11.19-16.54,5.05-2.02,10.37-3.03,15.69-3.03,4.78,0,9.56.82,14.15,2.45.3.11.59.22.89.33l.56.22.45.17c.62.24,1.23.51,1.81.82.5.25.99.53,1.45.84,5.02,3.24,8.2,8.89,8.2,14.99v42.47l-3.46-.37c-.66-.07-1.26.3-1.49.92-.06.17-.09.35-.09.51,0,.46.22.88.61,1.16l4.67,3.29c.17,4.05.09,8.93-2.13,10.45ZM202.49,165.76c-.09.32-.4,1.42-1.03,2.61-.21.38-.45.79-.73,1.17-.25.36-.54.71-.87,1.02-.91.88-2.09,1.53-3.59,1.53-1.13,0-2-.35-2.7-1.06-1.73-1.79-1.65-5.22-1.64-5.28v-36.06c0-2.22-1.09-4.32-2.91-5.6l-2.11-1.48-1.92-1.35-1.93-1.36-2.15-1.51,2.08.22,1.86.2,1.88.2v-.03l.04.04,1.9.2,1.9.2,7.45.79c2.54.27,4.46,2.4,4.46,4.96v40.58ZM201.42,116.83c2.54.27,4.46,2.41,4.46,4.97v40.58c-.11.4-.56,1.97-1.53,3.45v-40.64c0-3.51-2.63-6.44-6.13-6.81l-10.77-1.14-.79-.56v-1.4l14.75,1.57ZM220.25,74.45c0,2.03-1.52,3.78-3.53,4.07l-8.03,1.14c-7.31,1.05-14.71,1.1-22.03.14v-5.51c0-8.16-4.71-15.65-11.92-19.26v-26.95c0-6.09,3.65-11.48,9.31-13.74,4.24-1.7,8.71-2.54,13.18-2.54s8.55.77,12.64,2.33l.85.33c5.7,2.17,9.53,7.73,9.53,13.83v46.17Z"/>
  </g>
  <path class="cls-1" d="M187.8,49.68c-1.8-.67-3.21-2.08-3.88-3.88l-.21-.57-.21.57c-.67,1.8-2.08,3.21-3.88,3.88l-.57.21.57.21c1.8.66,3.21,2.08,3.88,3.87l.21.58.21-.58c.67-1.79,2.08-3.21,3.88-3.87l.57-.21-.57-.21ZM183.71,53.31c-.7-1.51-1.91-2.72-3.43-3.42,1.52-.7,2.73-1.91,3.43-3.43.7,1.52,1.91,2.73,3.42,3.43-1.51.7-2.72,1.91-3.42,3.42Z"/>
  <path class="cls-1" d="M162.75,35.35c-1.8-.67-3.21-2.08-3.88-3.88l-.21-.57-.21.57c-.67,1.8-2.08,3.21-3.88,3.88l-.57.21.57.21c1.8.66,3.21,2.08,3.88,3.87l.21.58.21-.58c.67-1.79,2.08-3.21,3.88-3.87l.57-.21-.57-.21ZM158.66,38.99c-.7-1.51-1.91-2.72-3.43-3.42,1.52-.7,2.73-1.91,3.43-3.43.7,1.52,1.91,2.73,3.42,3.43-1.51.7-2.72,1.91-3.42,3.42Z"/>
</svg>