<?xml version="1.0" encoding="UTF-8"?>
<svg id="orth" xmlns="http://www.w3.org/2000/svg" viewBox="0 0 363.8 141.93">
  <defs>
    <style>
      .cls-1 {
        fill: #008497;
      }
    </style>
  </defs>
  <path class="cls-1" d="M329.21,88.45c-2.24-6.21-.02-14.2-.59-20.52l12.12-1.01c1.28-.11,1.29-4.61.1-5.06-3.66-1.37-7.43.22-12.14-.9l-.27-39.12c-.06-9.67-6.16-15.39-14.49-18.43h-69.9c-1.42,0-2.84.3-4.11.94-2.82,1.42-5.55,3.5-7.88,5.54-1.33,1.16-3.31,1.19-4.65.04-2.37-2.04-5.13-4.15-7.99-5.58-1.27-.63-2.68-.94-4.1-.94h-68.03c-1.5,0-2.99.35-4.32,1.05-2.72,1.43-5.41,3.64-7.82,5.5-1.28.99-3.06.99-4.34,0-2.42-1.86-5.11-4.07-7.82-5.5-1.33-.7-2.82-1.05-4.33-1.05H48.71c-9.29,3.37-14.4,10.07-14.36,20.62l.13,36.91-15.87.86c-1.58.08-1.45,4.75.03,5.07,5.47,1.18,10.46-.51,15.8.99l.02,20.6c-8.32,8.61-20.66,11.29-32.65,11.24-7.74,12.93,27.85,2.36,32.99-2.79,4.77,22.61,23.37,39.38,45.1,41.03,23.68,1.8,45.05-11.19,53.29-34.4,7.74,20.84,26.17,34.41,47.52,34.57,21.79.16,40.74-12.83,48.71-34.73,8.32,22.03,28.66,36.2,51.96,34.67,22.87-1.5,41.9-18.42,46.66-41.41,11.06,7.41,22.62,9.78,34.23,8.35v-4.43c-9.56-1.93-25.79-1.68-33.07-12.12ZM40.54,21.19c0-6.73,5.58-11.56,12.29-11.56h63.61c6.74,0,12.22,4.95,12.23,11.68l.08,39.9c-8.02-.25-17.17,1-24.44-.54-1.62-3.63-.18-10.88-5.99-12.41-7.05-1.85-14.99-.92-21.79-.55-7.16.39-6.13,8.31-7.33,12.96-8.59,1.61-19.41.19-28.67.59V21.19ZM97.12,74.51c-7.33.93-13.54.76-20.83.12-1.03-7.05-.93-13.3-.1-20.58,7.3-.82,13.72-.97,20.79.13.74,6.89.53,12.48.13,20.32ZM128.62,88.56c-.6,21.98-16.54,40.26-38.24,42.67-26.4,2.93-48.26-15.2-49.71-41.45-.42-7.67-.6-15.01.21-22.54l28.89.42c-.47,5.6.16,12.11,6.02,12.89,6.75.9,13.95.65,20.84.15,5.5-.4,7.52-6.02,6.86-12.66,8.51-1.74,15.86-.34,24.85-.8,1.01,7.14.47,13.91.27,21.32ZM149.53,9.63h63.59c6.72,0,12.29,4.83,12.29,11.57l.02,40.02c-7.99-.23-17.28.97-24.64-.52-1.71-3.54.04-10.87-5.9-12.38-6.98-1.77-14.77-1.17-21.74-.57-6.48.55-7.73,7.3-6.89,13.42l-28.66-.05-.18-39.84c-.03-6.68,5.3-11.64,12.1-11.64ZM193.65,74.4c-7.19,1.11-13.43.83-20.68.23-1.01-7.05-.9-13.32-.11-20.59,7.22-.83,13.62-.89,20.52.1.7,6.88.38,12.45.26,20.27ZM225.34,89.94c-1.09,23.56-20.37,41.72-43.42,42.04-22.84.32-42.98-17.32-44.36-40.75-.49-8.28-.16-15.84.22-23.88l28.5.25c-.71,5.74.19,12.36,6.16,13.01,6.83.75,14,.64,20.87.05,5.54-.48,7.26-6.18,6.62-12.7,8.75-1.57,16.04-.32,25.17-.72.73,7.61.6,14.75.24,22.69ZM246.22,9.63h63.62c5.91.01,12.04,4.11,12.09,10.28l.32,41.31c-9.61-.19-18.03.95-27.06-.62.63-5.7-.35-11.19-5.81-12.54-4.55-1.13-22.64-2.52-26.41,2.99-1.98,2.9-1.28,6.08-1.65,10.17l-27.02-.12-.18-39.82c-.04-6.68,5.3-11.64,12.09-11.64ZM288.96,74.4c-7.19,1.11-13.43.83-20.68.23-1.01-7.05-.9-13.32-.11-20.59,7.23-.83,13.62-.88,20.52.09.7,6.89.38,12.46.26,20.27ZM322.05,89.84c-1.3,23.94-20.28,41.55-43.36,41.82-23.15.27-42.85-16.83-44.37-40.7-.49-7.75-.15-14.92,0-23.4,8.4-.04,18.75-1.31,26.78.43.81,4.59.13,12.07,6.64,12.63,6.74.59,14.01.7,20.9.05,5.55-.53,7.24-6.08,6.62-12.8,9.65-1.25,17.84-.54,26.93-.38,0,8.08.27,14.92-.13,22.34Z"/>
</svg>