<?xml version="1.0" encoding="UTF-8"?>
<svg id="crown" xmlns="http://www.w3.org/2000/svg" viewBox="0 0 273.95 186.83">
  <defs>
    <style>
      .cls-1 {
        fill: #008497;
      }
    </style>
  </defs>
  <g>
    <path class="cls-1" d="M203.11,20.45c-16.41-29.51-46,12.84-111.7-10.34-7.19-2.54-14.38-1.28-20.03,3.65-12.42,10.83-16.91,27.2-12.47,43.47,4.98,18.29,9.8,36.03,13.75,54.64.15.71.29,1.89.22,3.05-.16,2.58-3.15,4.05-5.17,2.44-.5-.4-.87-.93-1.02-1.64-3.91-18.57-8.88-36.29-14.07-54.71-5.57-19.8-.48-40.3,15.34-53.09,7.28-5.89,16.25-7.69,25.03-4.41,19.27,7.2,39.39,9.45,59.62,5.36l28.05-5.68c10.95-2.22,20.69,2.57,26.91,11.89,7.63,11.43,10.5,25.83,7.74,39.88-4.05,20.63-9.65,40.33-15.06,60.52-.45,1.68-2.51,2.85-3.42,3.32-.99.51-2.9.35-3.99-1.08s.03-2.85.71-4.97c6.22-19.4,10.91-38.74,15.16-58.85,2.42-11.47.12-23.17-5.6-33.44Z"/>
    <g>
      <path class="cls-1" d="M179.65,162.8c-.27.15-.55.31-.82.46.26-.24.53-.47.78-.72l.04.25Z"/>
      <path class="cls-1" d="M270,178.3c-14.15,0-28.04-4.97-40.18-14.38-11.82-9.17-21.13-21.8-26.91-36.53-.35-.89-1.2-1.47-2.15-1.47h0c-.95,0-1.8.58-2.15,1.46-3.4,8.58-8.49,16.85-14.82,24.21l-8.84-56.6c-1.92-12.29-11.94-20.51-24.46-20.5l-34.11.03c-11.06.01-21.74,7.34-23.48,18.67l-8.69,56.65c-6.29-7.09-11.24-14.96-14.43-23.11-.35-.89-1.2-1.47-2.15-1.47h0c-.95,0-1.8.58-2.15,1.47-5.33,13.44-13.55,24.67-24.45,33.37-10.6,8.47-23.21,14.16-37.49,16.93-1.26.24-2.08,1.46-1.84,2.72.25,1.26,1.46,2.08,2.72,1.83,3.13-.61,6.2-1.35,9.18-2.23,11.3-3.31,21.47-8.55,30.33-15.63,10.16-8.12,18.12-18.3,23.72-30.31,3.81,7.92,9.15,15.49,15.68,22.29,1.65,1.71,3.37,3.38,5.16,4.98,2.47,2.22,5.07,4.32,7.79,6.3,4.83,3.52,9.85,6.49,14.87,8.85,3.53,1.66,7.07,3.03,10.55,4.06,5.27,1.57,10.4,2.4,15.17,2.4,4.5,0,9.17-.79,13.85-2.25,9.68-3.02,19.47-8.94,28.14-16.77.26-.24.53-.47.78-.72,1.75-1.61,3.44-3.3,5.08-5.06,6.43-6.89,11.97-14.85,16.03-23.38,6.13,13.36,15.13,24.87,26.25,33.49,7.89,6.12,16.49,10.48,25.44,12.95,5.75,1.6,11.64,2.41,17.58,2.41,1.28,0,2.32-1.04,2.32-2.32s-1.04-2.32-2.32-2.32ZM172.2,162.87c-11.71,9.52-24.27,14.77-35.36,14.77s-25.27-5.26-37.87-14.43c-3.45-2.52-6.71-5.24-9.72-8.13l8.51-59.28c1.35-9.41,9.35-15.77,18.66-15.85h34.11c8.56-.1,17.33,5.33,18.78,14.86l9.45,62.15c-2.09,2.07-4.28,4.05-6.57,5.9Z"/>
    </g>
  </g>
  <path class="cls-1" d="M181.12,22.38c7.88,2.86,15.41,10.31,15.18,19.17-.05,1.24-.28,2.46-.66,3.62,0-9.85-7.32-17.04-14.52-22.79h0Z"/>
</svg>