<?xml version="1.0" encoding="UTF-8"?>
<svg id="implant" xmlns="http://www.w3.org/2000/svg" viewBox="0 0 131.55 223.68">
  <defs>
    <style>
      .cls-1 {
        fill: #008497;
      }
    </style>
  </defs>
  <path class="cls-1" d="M124.2,10.93C119.3,3.59,111.63-.18,103,1.57l-22.09,4.47c-15.93,3.22-31.77,1.45-46.95-4.22-6.92-2.58-13.98-1.16-19.72,3.47C1.78,15.37-2.23,31.51,2.17,47.1c4.08,14.5,7.99,28.46,11.08,43.09.11.57.42.99.82,1.31.15.05.38.13.54.2h8.65v14.87c0,2.64,2.14,4.78,4.78,4.78h7.27c1.93,0,3.49,1.56,3.49,3.49v2.03c-1.22.73-3.4,1.35-3.46,2.52-.07,1.34.42,2.66,1.34,3.63.61.65,1.33,1.17,2.12,1.55v13.53c-1.15.87-3.39,2.15-3.46,3.38-.07,1.34.42,2.66,1.34,3.63.61.65,1.33,1.17,2.12,1.56v12.83c-1.37,1.18-3.4,3.04-3.46,4.08-.07,1.33.42,2.66,1.34,3.63.61.65,1.33,1.17,2.12,1.56v13.35c-1.07.87-3.39,2.27-3.46,3.56-.07,1.34.42,2.66,1.34,3.63.61.65,1.33,1.17,2.12,1.55v5.18c0,5.12,1.99,11.6,5.2,16.92,3.9,6.46,8.85,10.02,13.93,10.02h15.68c8.66,0,15.61-10.27,18.12-19.8h0c.19-.01.38-.03.57-.05,1.07-.12,2.02-.72,2.62-1.63,1.05-1.65,1.39-3.55.91-5.22-.31-1.07-1.09-2.55-3.08-3.62v-11.71c.88-.21,1.66-.77,2.17-1.55,1.05-1.64,1.39-3.55.91-5.21-.31-1.08-1.09-2.56-3.08-3.63v-11.7c.89-.22,1.66-.77,2.17-1.55,1.05-1.65,1.39-3.55.91-5.21-.31-1.08-1.09-2.56-3.08-3.63v-11.71c.88-.21,1.66-.77,2.17-1.55,1.05-1.64,1.39-3.55.91-5.21-.31-1.08-1.09-2.55-3.08-3.62v-11.52c0-1.93,1.56-3.49,3.49-3.49h7.27c2.64,0,4.78-2.14,4.78-4.78v-14.87h8.89c.46-.37.89-.82,1.12-1.35.05-.11.09-.22.13-.34,4.26-15.9,8.67-31.41,11.87-47.66,2.17-11.07-.09-22.4-6.09-31.41ZM82.94,210.19c-2.85,4.71-6.24,7.41-9.32,7.41h-15.68c-3.08,0-6.48-2.7-9.32-7.41-2.69-4.46-4.43-10-4.43-14.14v-3.59l34.69,9.36c.2.06,3.28.95,7.24,1.31-.76,2.42-1.86,4.87-3.18,7.06ZM87.36,196.05c0,.77-.06,1.59-.18,2.45-3.8-.28-6.95-1.18-7.03-1.2l-35.97-9.7v-17.23l34.69,9.36c.22.06,3.95,1.14,8.49,1.41v14.92ZM87.36,176.42c-3.88-.26-7.13-1.2-7.21-1.22l-35.97-9.7v-17.22l34.69,9.36c.22.06,3.95,1.14,8.49,1.4v17.39ZM87.36,154.32c-3.88-.26-7.13-1.2-7.21-1.22l-35.97-9.7v-17.23l34.69,9.36c.22.07,3.96,1.14,8.49,1.41v17.39ZM87.36,132.21c-3.88-.26-7.13-1.2-7.21-1.22l-35.97-9.7v-9.94h43.18v20.87ZM102.91,101.18c0,2.64-2.14,4.78-4.78,4.78H33.42c-2.64,0-4.78-2.14-4.78-4.78v-9.49h74.27v9.49ZM125.09,41.5c-3.22,15.22-6.75,29.89-11.38,44.57H17.71c-3.07-14.25-6.77-27.89-10.59-41.94-3.49-12.81.05-25.7,9.82-34.23,4.45-3.88,10.12-4.87,15.77-2.87,51.74,18.26,75.04-15.1,87.97,8.15,4.5,8.09,6.32,17.3,4.41,26.34Z"/>
</svg>