<?xml version="1.0" encoding="UTF-8"?>
<svg id="Layer_1" data-name="Layer 1" xmlns="http://www.w3.org/2000/svg" xmlns:xlink="http://www.w3.org/1999/xlink" viewBox="0 0 1080 1080">
  <defs>
    <style>
      .cls-1 {
        fill: #111;
      }

      .cls-2 {
        fill: url(#linear-gradient-8);
      }

      .cls-3 {
        fill: url(#linear-gradient-7);
      }

      .cls-4 {
        fill: url(#linear-gradient-5);
      }

      .cls-5 {
        fill: url(#linear-gradient-6);
      }

      .cls-6 {
        fill: url(#linear-gradient-9);
      }

      .cls-7 {
        fill: url(#linear-gradient-4);
      }

      .cls-8 {
        fill: url(#linear-gradient-3);
      }

      .cls-9 {
        fill: url(#linear-gradient-2);
      }

      .cls-10 {
        fill: url(#linear-gradient);
      }

      .cls-11 {
        isolation: isolate;
      }
    </style>
    <linearGradient id="linear-gradient" x1="216.26" y1="592.71" x2="844.4" y2="581.8" gradientUnits="userSpaceOnUse">
      <stop offset="0" stop-color="#d59529"/>
      <stop offset="0" stop-color="#b26b28"/>
      <stop offset=".32" stop-color="#d38c29"/>
      <stop offset=".68" stop-color="#e5ac23"/>
      <stop offset="1" stop-color="#f7c63c"/>
    </linearGradient>
    <linearGradient id="linear-gradient-2" x1="216.31" y1="595.84" x2="844.45" y2="584.93" xlink:href="#linear-gradient"/>
    <linearGradient id="linear-gradient-3" x1="216.34" y1="597.05" x2="844.47" y2="586.14" xlink:href="#linear-gradient"/>
    <linearGradient id="linear-gradient-4" x1="216.39" y1="600.17" x2="844.53" y2="589.27" xlink:href="#linear-gradient"/>
    <linearGradient id="linear-gradient-5" x1="215.71" y1="561.01" x2="843.85" y2="550.11" xlink:href="#linear-gradient"/>
    <linearGradient id="linear-gradient-6" x1="216.43" y1="602.5" x2="844.57" y2="591.59" xlink:href="#linear-gradient"/>
    <linearGradient id="linear-gradient-7" x1="213.63" y1="441.17" x2="841.77" y2="430.26" xlink:href="#linear-gradient"/>
    <linearGradient id="linear-gradient-8" x1="213.88" y1="706.71" x2="354.23" y2="706.71" xlink:href="#linear-gradient"/>
    <linearGradient id="linear-gradient-9" x1="725.88" y1="706.71" x2="866.23" y2="706.71" xlink:href="#linear-gradient"/>
  </defs>
  <g>
    <g class="cls-11">
      <path class="cls-10" d="M314.33,618.84l2.93.62-10.3,32.66h-93.2v-3.28h4.53c5.09,0,8.73-1.66,10.92-4.97,1.24-1.89,1.86-6.27,1.86-13.14v-77.66c0-7.51-.83-12.22-2.49-14.11-2.31-2.6-5.74-3.91-10.3-3.91h-4.53v-3.28h54.5v3.28c-6.39-.06-10.87.53-13.45,1.78-2.57,1.24-4.34,2.81-5.28,4.7-.95,1.89-1.42,6.42-1.42,13.58v75.62c0,4.91.47,8.29,1.42,10.12.71,1.24,1.8,2.16,3.28,2.75,1.48.59,6.09.89,13.85.89h8.79c9.23,0,15.71-.68,19.44-2.04,3.73-1.36,7.13-3.77,10.21-7.23,3.08-3.46,6.15-8.92,9.23-16.38Z"/>
      <path class="cls-9" d="M411.7,535.05v-3.28h42.6v3.28h-4.53c-4.73,0-8.37,1.98-10.92,5.95-1.24,1.83-1.86,6.09-1.86,12.78v48.82c0,12.07-1.2,21.44-3.59,28.09-2.4,6.66-7.1,12.37-14.11,17.13-7.01,4.76-16.55,7.14-28.63,7.14-13.14,0-23.11-2.28-29.91-6.83-6.81-4.56-11.63-10.68-14.47-18.37-1.89-5.27-2.84-15.15-2.84-29.65v-47.04c0-7.4-1.02-12.25-3.06-14.56-2.04-2.31-5.34-3.46-9.9-3.46h-4.53v-3.28h52.01v3.28h-4.62c-4.97,0-8.52,1.57-10.65,4.7-1.48,2.13-2.22,6.57-2.22,13.31v52.46c0,4.68.43,10.03,1.29,16.07.86,6.04,2.41,10.74,4.66,14.11,2.25,3.37,5.49,6.15,9.72,8.34,4.23,2.19,9.42,3.28,15.58,3.28,7.87,0,14.91-1.72,21.12-5.15,6.21-3.43,10.46-7.82,12.74-13.18,2.28-5.36,3.42-14.42,3.42-27.21v-48.73c0-7.51-.83-12.22-2.49-14.11-2.31-2.6-5.74-3.91-10.3-3.91h-4.53Z"/>
      <path class="cls-8" d="M564.28,618.84l2.93.62-10.3,32.66h-93.2v-3.28h4.53c5.09,0,8.73-1.66,10.92-4.97,1.24-1.89,1.86-6.27,1.86-13.14v-77.66c0-7.51-.83-12.22-2.49-14.11-2.31-2.6-5.74-3.91-10.3-3.91h-4.53v-3.28h54.5v3.28c-6.39-.06-10.87.53-13.45,1.78-2.57,1.24-4.34,2.81-5.28,4.7-.95,1.89-1.42,6.42-1.42,13.58v75.62c0,4.91.47,8.29,1.42,10.12.71,1.24,1.8,2.16,3.28,2.75,1.48.59,6.09.89,13.85.89h8.79c9.23,0,15.71-.68,19.44-2.04,3.73-1.36,7.13-3.77,10.21-7.23,3.08-3.46,6.15-8.92,9.23-16.38Z"/>
      <path class="cls-7" d="M661.65,535.05v-3.28h42.6v3.28h-4.53c-4.74,0-8.37,1.98-10.92,5.95-1.24,1.83-1.86,6.09-1.86,12.78v48.82c0,12.07-1.2,21.44-3.59,28.09-2.4,6.66-7.1,12.37-14.11,17.13-7.01,4.76-16.55,7.14-28.63,7.14-13.14,0-23.11-2.28-29.91-6.83-6.8-4.56-11.63-10.68-14.47-18.37-1.89-5.27-2.84-15.15-2.84-29.65v-47.04c0-7.4-1.02-12.25-3.06-14.56-2.04-2.31-5.34-3.46-9.9-3.46h-4.53v-3.28h52.01v3.28h-4.62c-4.97,0-8.52,1.57-10.65,4.7-1.48,2.13-2.22,6.57-2.22,13.31v52.46c0,4.68.43,10.03,1.29,16.07.86,6.04,2.41,10.74,4.66,14.11,2.25,3.37,5.49,6.15,9.72,8.34,4.23,2.19,9.42,3.28,15.58,3.28,7.87,0,14.91-1.72,21.12-5.15,6.21-3.43,10.46-7.82,12.74-13.18,2.28-5.36,3.42-14.42,3.42-27.21v-48.73c0-7.51-.83-12.22-2.49-14.11-2.31-2.6-5.74-3.91-10.3-3.91h-4.53Z"/>
      <path class="cls-4" d="M731.15,574.99v-4.17c6.09-3.61,10.24-6.98,12.43-10.12,1.54-2.25,2.31-4.94,2.31-8.08,0-1.83-.33-3.2-.98-4.08-.71-.89-1.48-1.33-2.31-1.33-.65,0-1.51.21-2.57.62-1.54.53-2.81.8-3.82.8-2.37,0-4.47-.89-6.3-2.66-1.83-1.78-2.75-3.99-2.75-6.66,0-2.96.92-5.27,2.75-6.92,2.49-2.25,5.44-3.37,8.88-3.37,3.96,0,7.53,1.67,10.7,5.01,3.16,3.34,4.75,7.5,4.75,12.47,0,6.98-2.63,13.34-7.9,19.08-3.49,3.79-8.55,6.92-15.18,9.41Z"/>
      <path class="cls-5" d="M857.73,529.01v41.63h-3.28c-1.07-7.99-2.97-14.35-5.73-19.08-2.75-4.73-6.67-8.49-11.76-11.27-5.09-2.78-10.36-4.17-15.8-4.17-6.16,0-11.24,1.88-15.27,5.64-4.03,3.76-6.04,8.03-6.04,12.83,0,3.67,1.27,7.01,3.82,10.03,3.67,4.44,12.4,10.36,26.18,17.75,11.24,6.04,18.92,10.67,23.03,13.89,4.11,3.23,7.28,7.03,9.5,11.41,2.22,4.38,3.33,8.96,3.33,13.76,0,9.11-3.54,16.97-10.61,23.57-7.07,6.6-16.17,9.9-27.29,9.9-3.49,0-6.78-.27-9.85-.8-1.84-.3-5.64-1.38-11.41-3.24-5.77-1.86-9.42-2.8-10.96-2.8s-2.65.44-3.51,1.33c-.86.89-1.5,2.72-1.91,5.5h-3.28v-41.27h3.28c1.54,8.64,3.61,15.11,6.21,19.39,2.6,4.29,6.58,7.86,11.94,10.7,5.35,2.84,11.23,4.26,17.62,4.26,7.4,0,13.24-1.95,17.53-5.86,4.29-3.91,6.43-8.52,6.43-13.85,0-2.96-.81-5.95-2.44-8.97-1.63-3.02-4.16-5.83-7.59-8.43-2.31-1.78-8.61-5.55-18.91-11.32-10.3-5.77-17.62-10.37-21.97-13.8-4.35-3.43-7.65-7.22-9.9-11.36-2.25-4.14-3.37-8.7-3.37-13.67,0-8.64,3.31-16.08,9.94-22.32,6.63-6.24,15.06-9.36,25.3-9.36,6.39,0,13.17,1.57,20.33,4.7,3.31,1.48,5.65,2.22,7.01,2.22,1.54,0,2.8-.46,3.77-1.38.98-.92,1.76-2.77,2.35-5.55h3.28Z"/>
    </g>
    <path class="cls-3" d="M714.9,404.22l-29.14,23.44c1.92,5.24,1.36,9.14.13,11.88-15.88,17.01-32.8,30.73-43.82,27.07-10.35-3.32-14.69-15.5-16.41-27.49-1.18-8.25,1.94-16.52,8.14-22.1l-4.62-15.9-11.13,14.34c.8,2.16,1.2,4.44,1.2,6.69,0,3.05-.74,6.09-2.19,8.85-8.38,15.88-19.42,27.4-31.28,22.23-42.72-29.14-39.38-42.79-36.86-60.7.11-.76.2-1.47.31-2.1l9.41-6.36-18.95-32.15-18.89,32.15,9.41,6.36c.11.62.2,1.34.31,2.1,2.52,17.91,5.86,31.55-36.86,60.7-11.86,5.17-22.9-6.35-31.26-22.23-2.54-4.79-2.85-10.46-1-15.54l-11.13-14.34-4.62,15.9c5.35,4.79,8.41,11.62,8.41,18.69,0,1.14-.09,2.27-.25,3.41-1.72,12-6.07,24.17-16.43,27.49-11.02,3.66-27.94-10.06-43.82-27.07-1.23-2.74-1.78-6.64.13-11.88l-29.14-23.44-5.86-4.7,59.8,117.47s47.23-20.87,120.41-20.87,122.04,20.87,122.04,20.87l59.8-117.47-5.86,4.7ZM605.91,458.38l11.26-7.6,7.51,11.15c1.49,2.21.91,5.2-1.29,6.69l-11.04,7.45-7.67-11.35c-1.4-2.1-.85-4.93,1.23-6.33ZM524.79,445.87l14.9-14.81,14.81,14.81c2.03,2.03,2.03,5.31,0,7.34l-14.81,14.92-14.92-14.9c-2.03-2.05-2.03-5.33.02-7.36ZM454.26,461.93l7.51-11.15,11.26,7.6c2.1,1.4,2.63,4.24,1.23,6.33l-7.65,11.35-11.06-7.45c-2.21-1.49-2.79-4.48-1.29-6.69ZM418.2,488.66l1.87-8.14,8.32,1.92c1.36.31,2.21,1.67,1.9,3.03l-1.94,8.36-8.05-1.85c-1.49-.33-2.43-1.83-2.1-3.32ZM655.3,504.14c-.18.45-.6.71-1.05.71-.13,0-.27-.02-.4-.07-116.8-42.9-232.57-.42-233.73,0-.58.22-1.23-.07-1.45-.65-.2-.58.09-1.23.67-1.43,1.16-.45,117.69-43.19,235.29-.02.58.22.87.87.67,1.45ZM654.21,491.98l-8.05,1.87-1.94-8.38c-.31-1.36.54-2.72,1.9-3.03l8.32-1.9,1.87,8.12c.33,1.49-.6,2.99-2.1,3.32Z"/>
  </g>
  <g>
    <path class="cls-1" d="M374.07,713.4v-5.68c0-3.07.57-5.69,1.7-7.84,1.14-2.15,2.71-3.8,4.72-4.93s4.35-1.7,7.01-1.7,5.04.51,6.87,1.53c1.83,1.02,3.22,2.29,4.19,3.83.96,1.54,1.46,3.11,1.51,4.71h-3.37c-.17-1.04-.59-2.09-1.23-3.17-.65-1.07-1.62-1.96-2.92-2.68-1.3-.71-2.97-1.07-5-1.07-3.1,0-5.54,1.02-7.34,3.05-1.8,2.03-2.69,4.9-2.69,8.6v5.26c0,3.7.91,6.56,2.73,8.59,1.82,2.02,4.31,3.03,7.47,3.03,2.05,0,3.71-.32,4.97-.96,1.25-.64,2.21-1.45,2.86-2.44.65-.98,1.09-2,1.33-3.03h3.34c-.09,1.47-.58,2.95-1.48,4.45-.9,1.49-2.26,2.72-4.07,3.68-1.82.96-4.18,1.44-7.08,1.44-2.73,0-5.1-.57-7.12-1.7-2.02-1.14-3.59-2.8-4.71-5-1.11-2.2-1.67-4.85-1.67-7.97Z"/>
    <path class="cls-1" d="M441.53,727.52v-46.62h3.44v46.62h-3.44Z"/>
    <path class="cls-1" d="M500.75,693.24c2.62,0,4.98.57,7.09,1.7,2.11,1.14,3.79,2.8,5.03,5,1.24,2.2,1.87,4.89,1.87,8.07v5.36c0,3.2-.62,5.9-1.87,8.08-1.24,2.19-2.92,3.84-5.03,4.95-2.11,1.11-4.47,1.67-7.09,1.67s-4.98-.56-7.09-1.67c-2.11-1.11-3.78-2.76-5-4.95s-1.83-4.88-1.83-8.08v-5.39c0-3.14.62-5.81,1.85-8,1.23-2.2,2.9-3.87,5-5.01,2.1-1.15,4.46-1.72,7.08-1.72ZM500.75,696.32c-2.03,0-3.84.48-5.4,1.43-1.57.95-2.81,2.33-3.72,4.12s-1.36,3.98-1.36,6.56v4.54c0,2.58.44,4.76,1.32,6.54s2.11,3.14,3.7,4.07c1.59.93,3.42,1.4,5.5,1.4s3.9-.46,5.47-1.38c1.57-.92,2.8-2.28,3.7-4.07s1.35-3.98,1.35-6.56v-4.54c0-2.55-.45-4.73-1.36-6.54-.91-1.81-2.16-3.19-3.75-4.14-1.59-.95-3.4-1.43-5.44-1.43Z"/>
    <path class="cls-1" d="M554.58,702.69c0-2.12.53-3.88,1.59-5.28,1.06-1.4,2.47-2.44,4.22-3.13,1.75-.69,3.7-1.04,5.84-1.04,2.64,0,4.81.44,6.51,1.33,1.7.89,2.96,2.02,3.78,3.39.82,1.37,1.23,2.79,1.23,4.24h-3.25c-.04-.82-.34-1.7-.89-2.63-.55-.93-1.44-1.73-2.66-2.39-1.22-.66-2.83-.99-4.82-.99-2.25,0-4.17.52-5.75,1.56-1.58,1.04-2.37,2.58-2.37,4.61,0,1.06.22,1.94.67,2.63.44.69,1.06,1.28,1.85,1.75.79.48,1.72.88,2.79,1.2s2.22.64,3.46.94c2.12.45,4.07,1,5.84,1.62s3.2,1.53,4.27,2.69c1.07,1.17,1.61,2.82,1.61,4.97s-.56,4.05-1.67,5.52-2.63,2.57-4.56,3.29c-1.93.72-4.06,1.09-6.4,1.09-2.75,0-5.03-.43-6.83-1.3-1.81-.87-3.15-1.99-4.04-3.38s-1.33-2.88-1.33-4.48h3.34c.09.95.42,1.91,1.01,2.87.59.96,1.52,1.76,2.81,2.39,1.29.63,3.01.94,5.18.94,1.82,0,3.41-.26,4.77-.78,1.36-.52,2.42-1.27,3.17-2.24.75-.97,1.12-2.14,1.12-3.51,0-1.49-.43-2.66-1.3-3.49-.87-.83-2.01-1.48-3.42-1.93-1.42-.45-2.95-.85-4.59-1.2-2.16-.52-4.08-1.11-5.76-1.79-1.68-.67-3-1.59-3.96-2.76-.96-1.17-1.44-2.75-1.44-4.74Z"/>
    <path class="cls-1" d="M631.63,728.07c-2.88,0-5.34-.6-7.37-1.79-2.03-1.19-3.6-2.92-4.69-5.18-1.09-2.26-1.64-4.94-1.64-8.03v-4.54c0-3.25.57-6.01,1.7-8.29,1.14-2.28,2.71-4.02,4.71-5.21,2-1.19,4.3-1.79,6.9-1.79s4.93.6,6.93,1.79,3.57,2.92,4.71,5.19c1.14,2.27,1.7,5.04,1.7,8.31v2.76h-23.21v1.88c0,3.64.9,6.51,2.69,8.63,1.8,2.12,4.32,3.18,7.56,3.18,1.82,0,3.36-.29,4.64-.88,1.28-.58,2.27-1.31,2.97-2.18.7-.87,1.13-1.72,1.28-2.56h3.57c-.11.89-.43,1.84-.97,2.86-.54,1.02-1.32,1.97-2.34,2.86-1.02.89-2.29,1.61-3.81,2.16-1.53.55-3.31.83-5.34.83ZM621.37,708.5h19.77v-.36c0-2.47-.41-4.59-1.22-6.36-.81-1.77-1.96-3.13-3.46-4.07-1.49-.94-3.24-1.41-5.23-1.41s-3.69.47-5.18,1.41c-1.48.94-2.64,2.3-3.46,4.07-.82,1.77-1.23,3.9-1.23,6.36v.36Z"/>
    <path class="cls-1" d="M687.76,693.79v-8.31h3.41v8.31h8.73v2.89h-8.73v22.66c0,2.1.44,3.54,1.33,4.32.89.78,2.46,1.17,4.71,1.17.45,0,1.02-.03,1.7-.08s1.19-.09,1.54-.11v2.95c-.35.06-.95.12-1.8.18-.86.05-1.54.08-2.06.08-2.38,0-4.2-.3-5.47-.89s-2.14-1.53-2.63-2.79c-.49-1.27-.73-2.92-.73-4.95v-22.53h-6.04v-2.89h6.04Z"/>
  </g>
  <polygon class="cls-2" points="354.23 702.76 213.88 702.97 342.91 710.66 354.23 702.76 354.23 702.76"/>
  <polygon class="cls-6" points="725.88 702.76 866.23 702.97 737.19 710.66 725.88 702.76 725.88 702.76"/>
</svg>