<?xml version="1.0" encoding="UTF-8"?>
<svg id="smile" xmlns="http://www.w3.org/2000/svg" viewBox="0 0 315.33 179.28">
  <defs>
    <style>
      .cls-1 {
        fill: #008497;
      }
    </style>
  </defs>
  <path class="cls-1" d="M304.37,58.48h-.19s0-.03.01-.04c.5-2.01-.45-4.09-2.28-5.05l-71.61-37.32c-1.23-.63-2.49-1.14-3.75-1.48-27.25-7.55-51.47-4.12-68.64,9.62-10.07-6.67-20.06-10.8-31.16-12.89-13.71-2.99-28-.1-41.35,8.36-11.1,7.03-22.79,13.09-34.7,18.61-6.08,2.82-12.22,5.5-18.38,8.13-2.73,1.16-5.41,2.53-8.16,3.6-5.57,2.16-8.66,3.28-10.75,9.48-8.99,26.64,7.77,52.2,27.44,69.09,13.65,11.72,31.41,21.61,50,27.85,21.56,7.23,43.94,10.89,66.55,10.89h1.01c22.97-.11,45.65-4,67.42-11.56,17.98-6.25,35.22-16.05,48.54-27.61,16.18-14.03,26.42-30.51,29.63-47.65.57-3.03.37-22.02.37-22.02ZM292.15,66.72c-7.81,13.08-26.62,24.58-40.94,30.2l-.11-30.3,41.05.1ZM238.32,101.7c-8.35,2.95-16.87,5.14-26.8,6.89l-.25-41.84,26.85-.11.2,35.06ZM89.84,26.66c8.58-5.43,17.54-8.21,26.35-8.21,2.98,0,5.94.32,8.86.96l.12.03c10.9,2.05,20.63,6.29,30.64,13.34l2.7,1.9,2.45-2.2c20.37-18.27,48.46-14.06,63.4-9.92.7.19,1.42.48,2.13.86l57.9,30.17H36.6c18.4-7.87,36.06-16.04,53.24-26.92ZM198.08,110.77c-12.28,2.14-23.45,2.68-33.8,2.77l-.02-46.83,33.62-.04.2,44.1ZM151.5,113.19c-9.96.9-19.99-.48-30.55-1.92-2.07-.28-4.19-.57-6.33-.85l-.07-43.8h36.6s.35,46.57.35,46.57ZM101.46,66.72l-.15,41.32c-11.72-2.37-21.87-5.29-32.08-9.23v-32.16s32.23.08,32.23.08ZM40.22,66.46c4.98.11,10.09.22,15.62.03.71,7.14.51,14.18.3,21.57-.05,1.57-.09,3.16-.13,4.78-15-6.91-25.67-15.38-32.93-26.18,5.58-.45,11.24-.32,17.14-.2ZM223.11,147.94c-20.91,7.27-42.69,11-64.75,11.11h-.97c-21.71,0-43.21-3.52-63.91-10.47-17.6-5.91-34.38-15.25-47.24-26.29-13.63-11.69-22.46-24.69-26.32-38.68,6.03,6.26,11.57,10.74,17.89,14.53,24.81,14.85,56.82,24.32,92.56,27.4,31.96,2.75,66.23.23,96.5-7.08,16.95-4.1,47.33-13.83,67.71-34.08-9.05,31.62-43.52,53.85-71.49,63.57Z"/>
</svg>